<?xml version="1.0" encoding="utf-8"?>
<!-- Generator: Adobe Illustrator 16.0.0, SVG Export Plug-In . SVG Version: 6.00 Build 0)  -->
<!DOCTYPE svg PUBLIC "-//W3C//DTD SVG 1.1//EN" "http://www.w3.org/Graphics/SVG/1.1/DTD/svg11.dtd">
<svg version="1.1" xmlns="http://www.w3.org/2000/svg" xmlns:xlink="http://www.w3.org/1999/xlink" x="0px" y="0px" width="960px"
	 height="560px" viewBox="0 0 960 560" enable-background="new 0 0 960 560" xml:space="preserve">
<g id="Layer_7" display="none">
	<rect x="154.5" y="32.5" display="inline" fill="#177287" stroke="#FFFFFF" stroke-miterlimit="10" width="650" height="479"/>
</g>
<g id="Layer_2">
	<g>
		<path fill="#603813" d="M420.062,133c3.501-2.486,6.812-5.265,10.003-8.145c1.59-1.449,3.146-2.934,4.664-4.454
			c1.519-1.52,3-3.075,4.445-4.663l2.13-2.412l2.064-2.465l1.985-2.526c0.656-0.845,1.271-1.722,1.909-2.58
			c0.647-0.852,1.222-1.755,1.828-2.634c0.612-0.876,1.189-1.774,1.743-2.686c1.157-1.794,2.184-3.664,3.215-5.525l1.443-2.845
			c0.475-0.951,0.878-1.934,1.321-2.898c0.455-0.959,0.828-1.952,1.207-2.941c0.375-0.99,0.788-1.967,1.087-2.982l0.965-3.019
			l0.791-3.063c0.294-1.014,0.422-2.063,0.642-3.092l0.299-1.549c0.089-0.518,0.139-1.042,0.21-1.562
			c0.121-1.043,0.292-2.081,0.374-3.126l0.18-3.14c0.094-1.045-0.002-2.095,0.008-3.141c-0.014-1.047-0.008-2.093-0.134-3.135
			l-0.276-3.125l-0.503-3.097l-0.255-1.546l-0.372-1.525l-0.739-3.047l-1.545-6.364l4.979,4.169
			c3.316,2.778,6.304,5.659,9.284,8.653c2.97,2.979,5.798,6.09,8.562,9.258c1.359,1.603,2.746,3.186,4.048,4.837l1.981,2.455
			l1.916,2.507c1.294,1.66,2.524,3.368,3.74,5.087c1.247,1.697,2.407,3.456,3.578,5.208c1.197,1.735,2.303,3.53,3.411,5.326
			c0.552,0.899,1.123,1.787,1.658,2.696l1.57,2.75l1.569,2.753l1.468,2.81c0.979,1.875,1.985,3.736,2.854,5.669
			c1.862,3.805,3.491,7.723,5.064,11.667l2.132,6.007c0.684,2.013,1.214,4.077,1.826,6.114c0.644,2.03,1.072,4.12,1.538,6.197
			l0.696,3.118c0.231,1.039,0.363,2.1,0.549,3.148l0.496,3.158c0.149,1.055,0.36,2.1,0.432,3.166l0.59,6.366
			c0.164,2.123,0.131,4.26,0.204,6.387c0.02,1.064,0.059,2.127,0.06,3.191l-0.132,3.191l-0.133,3.187
			c-0.047,1.062-0.076,2.125-0.227,3.179l-0.744,6.328c-0.066,0.526-0.115,1.054-0.195,1.578l-0.291,1.565l-0.582,3.126
			c-0.415,2.078-0.75,4.167-1.355,6.2l-1.638,6.121c-0.237,1.028-0.637,2.011-0.975,3.009l-1.049,2.982
			c-0.729,1.975-1.313,3.997-2.215,5.903l-2.533,5.763c-0.779,1.943-1.863,3.753-2.821,5.61l-2.986,5.503l-0.629-0.308l2.119-5.856
			c0.705-1.945,1.488-3.854,2.044-5.847c1.191-3.955,2.516-7.844,3.39-11.861c0.463-1.999,1.031-3.966,1.404-5.977l1.106-6.027
			c0.432-1.994,0.577-4.035,0.833-6.053l0.375-3.027l0.188-1.512c0.046-0.505,0.061-1.015,0.093-1.521l0.146-6.078
			c0.091-1.01-0.15-2.026-0.15-3.039v-3.038v-3.035c0-1.011,0.069-2.021,0.009-3.03c-0.156-2.017-0.106-4.04-0.348-6.047
			l-0.67-6.019c-0.245-2.004-0.666-3.982-0.983-5.976c-0.181-0.994-0.293-1.997-0.52-2.982l-0.669-2.956
			c-0.466-1.967-0.841-3.954-1.424-5.894c-0.554-1.946-1.043-3.911-1.646-5.844l-1.869-5.786l-2.109-5.712
			c-0.338-0.958-0.725-1.898-1.131-2.83l-1.19-2.809c-0.76-1.889-1.661-3.715-2.533-5.557l-1.324-2.755l-1.431-2.704l-1.431-2.706
			c-0.488-0.896-1.015-1.771-1.521-2.658c-1.016-1.771-2.031-3.545-3.139-5.264c-1.077-1.738-2.159-3.473-3.324-5.156
			c-1.135-1.703-2.284-3.396-3.498-5.045l-1.796-2.492l-1.863-2.443c-1.224-1.645-2.532-3.222-3.813-4.822
			c-2.607-3.161-5.282-6.273-8.093-9.254c-2.792-2.97-5.714-5.935-8.693-8.573l3.435-2.194l0.701,3.273l0.349,1.635l0.229,1.658
			l0.442,3.316l0.204,3.34c0.1,1.111,0.066,2.227,0.05,3.341c-0.04,1.113,0.025,2.229-0.102,3.338l-0.284,3.326
			c-0.118,1.105-0.327,2.199-0.486,3.298c-0.091,0.547-0.161,1.099-0.269,1.643l-0.369,1.623c-0.269,1.076-0.447,2.174-0.791,3.228
			l-0.944,3.182c-0.356,1.046-0.747,2.08-1.119,3.119c-0.352,1.047-0.815,2.049-1.242,3.065c-0.43,1.015-0.855,2.031-1.36,3.009
			c-0.494,0.983-0.949,1.985-1.474,2.95l-1.593,2.882c-1.129,1.88-2.254,3.762-3.504,5.559c-0.601,0.915-1.225,1.813-1.882,2.686
			c-0.651,0.877-1.271,1.778-1.962,2.624c-0.681,0.853-1.34,1.724-2.039,2.561l-2.111,2.498l-2.185,2.43l-2.247,2.369
			c-1.521,1.557-3.076,3.078-4.666,4.56c-1.599,1.473-3.23,2.907-4.895,4.302c-3.342,2.774-6.778,5.425-10.428,7.796L420.062,133z"
			/>
	</g>
	<g>
		<path fill="#754C24" d="M476.332,82.217c0,0-0.016-0.02-0.045-0.06l-0.013-0.017l-0.009-0.014l-0.005-0.008l-0.002-0.004
			c0.121-0.065-0.27,0.152,0.252-0.197c0.075,0.083,0.043,0.051,0.067,0.08c0.023,0.029,0.049,0.063,0.079,0.102
			c0.114,0.155,0.284,0.386,0.505,0.687c0.427,0.61,1.068,1.5,1.779,2.695c1.447,2.374,3.352,5.884,5.135,10.327
			c0.903,2.216,1.8,4.657,2.577,7.293c0.795,2.63,1.552,5.438,2.114,8.39c0.567,2.949,1.115,6.017,1.38,9.168
			c0.295,3.146,0.459,6.358,0.474,9.572c-0.04,3.213-0.226,6.423-0.54,9.568c-0.297,3.148-0.857,6.213-1.445,9.157
			c-0.583,2.948-1.36,5.749-2.166,8.373c-0.788,2.63-1.695,5.064-2.595,7.277c-0.877,2.221-1.806,4.204-2.663,5.938
			c-0.841,1.741-1.665,3.214-2.345,4.42c-0.676,1.209-1.272,2.124-1.662,2.754c-0.397,0.626-0.609,0.96-0.609,0.96l-0.271-0.131
			c0,0,0.69-1.405,1.793-3.913c1.092-2.51,2.587-6.132,4.043-10.596c1.46-4.459,2.882-9.761,3.879-15.541
			c1.008-5.776,1.584-12.025,1.582-18.278c0.042-6.252-0.49-12.505-1.459-18.288c-0.961-5.786-2.345-11.099-3.808-15.556
			c-1.459-4.461-2.987-8.07-4.156-10.543c-0.584-1.237-1.078-2.192-1.427-2.835c-0.178-0.319-0.314-0.563-0.407-0.728
			c-0.023-0.04-0.044-0.075-0.062-0.105c0.003-0.002-0.044-0.049,0.006,0.005c0.477-0.321,0.347-0.17,0.46-0.17H477v-0.017
			l-0.227,0.004l-0.106,0.015c0.024,0.041-0.021,0.062-0.021,0.062L476.332,82.217z"/>
	</g>
	<g>
		<path fill="#754C24" d="M585.88,204.877c0,0,0.086,0.555,0.188,1.628c0.032,0.534,0.071,1.193,0.117,1.967
			c0.01,0.774,0.03,1.669,0.001,2.669c-0.063,0.996-0.089,2.109-0.201,3.312c-0.141,1.197-0.264,2.506-0.506,3.883
			c-0.279,1.368-0.478,2.857-0.874,4.379c-0.202,0.761-0.409,1.542-0.622,2.341c-0.211,0.801-0.428,1.622-0.732,2.431
			c-0.284,0.818-0.574,1.654-0.87,2.505c-0.148,0.427-0.298,0.857-0.449,1.292c-0.161,0.43-0.36,0.848-0.541,1.279
			c-0.38,0.855-0.766,1.725-1.158,2.608c-0.198,0.441-0.397,0.886-0.599,1.334c-0.214,0.442-0.465,0.867-0.698,1.306
			c-0.478,0.874-0.961,1.76-1.45,2.657c-0.486,0.901-0.976,1.816-1.576,2.672c-0.569,0.877-1.155,1.758-1.757,2.642
			c-0.611,0.875-1.164,1.812-1.875,2.634c-1.368,1.686-2.721,3.442-4.171,5.146c-1.529,1.628-3.1,3.261-4.701,4.887
			c-3.386,3.041-6.823,6.166-10.629,8.784l-2.816,2.013l-0.353,0.251l-0.176,0.125l-0.088,0.063l-0.044,0.032l-0.184,0.115
			l-0.728,0.417l-1.455,0.839c-1.936,1.127-3.864,2.25-5.777,3.363c-3.832,2.22-7.604,4.405-11.253,6.52
			c-3.646,2.118-7.173,4.166-10.516,6.106c-3.333,1.956-6.484,3.806-9.393,5.513c-2.891,1.734-5.549,3.311-7.878,4.748
			c-2.316,1.454-4.331,2.728-5.943,3.839c-1.616,1.109-2.835,2.037-3.599,2.738c-0.782,0.693-1.015,1.18-1.044,1.167l-0.271-0.129
			c0,0,0.078-0.124,0.229-0.363c0.136-0.256,0.402-0.57,0.759-0.97c0.725-0.785,1.863-1.854,3.414-3.081
			c3.081-2.48,7.695-5.73,13.341-9.457c5.645-3.73,12.319-7.942,19.528-12.36c3.617-2.188,7.354-4.45,11.151-6.748
			c1.909-1.133,3.832-2.275,5.764-3.422l1.453-0.854l0.729-0.427l0.667-0.484l2.725-1.984c3.729-2.524,7.088-5.527,10.403-8.451
			c1.559-1.571,3.104-3.129,4.631-4.669c1.438-1.62,2.781-3.292,4.146-4.897c0.709-0.783,1.259-1.676,1.869-2.511
			c0.597-0.845,1.188-1.683,1.773-2.511c0.612-0.811,1.115-1.679,1.614-2.535c0.504-0.853,1.003-1.696,1.494-2.527
			c1.889-3.368,3.41-6.698,4.604-9.851c0.335-0.774,0.583-1.562,0.824-2.332c0.247-0.768,0.487-1.519,0.723-2.25
			c0.476-1.461,0.752-2.896,1.107-4.219c0.32-1.332,0.501-2.603,0.732-3.766c0.194-1.169,0.297-2.254,0.43-3.228
			c0.098-0.978,0.143-1.855,0.203-2.616c0.021-0.763,0.039-1.412,0.054-1.938c-0.009-1.046-0.046-1.609-0.045-1.609L585.88,204.877z
			"/>
	</g>
	<g>
		<path fill="#603813" d="M451.52,272.298c0,0,0.237-0.337,0.697-0.99c0.459-0.654,1.122-1.628,2.117-2.844
			c1.93-2.477,4.898-5.93,8.627-10.274c0.887-1.109,1.884-2.247,2.809-3.487c0.462-0.618,0.935-1.251,1.418-1.897
			c0.451-0.654,0.852-1.334,1.293-2.015c0.44-0.646,0.85-1.472,1.298-2.249c0.441-0.784,0.892-1.583,1.35-2.396
			c0.901-1.615,1.813-3.295,2.701-5.049c1.752-3.506,3.555-7.265,4.815-11.311c0.589-2.025,1.207-4.086,1.503-6.196l0.143-0.791
			l0.057-0.31l0.045-0.445c0.06-0.594,0.12-1.192,0.181-1.793c0.153-1.24,0.172-2.334,0.228-3.471
			c0.389-9.271-1.264-19.46-5.291-29.24c-1.995-4.902-4.669-9.667-7.888-14.167l-0.6-0.847l-0.15-0.212
			c0.203,0.281,0.006,0.015,0.029,0.05l-0.087-0.109l-0.35-0.437l-1.404-1.752l-1.392-1.775l-0.699-0.883l-0.7-0.757
			c-0.927-1.013-1.859-2.03-2.795-3.052c-0.953-1.018-2.065-1.989-3.093-2.994l-1.574-1.5l-1.686-1.396
			c-1.138-0.917-2.228-1.898-3.411-2.777c-1.195-0.863-2.394-1.728-3.597-2.597c-0.589-0.45-1.218-0.848-1.854-1.238l-1.896-1.191
			c-5.085-3.137-10.486-5.939-16.172-8.214c-5.671-2.294-11.576-4.211-17.656-5.484c-6.065-1.293-12.253-2.247-18.476-2.495
			c-1.551-0.159-3.108-0.127-4.663-0.174l-2.332-0.049l-0.292-0.006c0.027-0.003-0.266,0.001,0.023-0.007l-0.154,0.005l-0.616,0.021
			l-1.232,0.042c-1.624,0.068-3.326,0.087-4.882,0.196l-4.517,0.406c-6.114,0.716-12.268,1.806-18.161,3.479
			c-1.489,0.372-2.923,0.908-4.384,1.35l-2.179,0.693l-2.132,0.802c-1.415,0.544-2.856,1.022-4.243,1.612
			c-1.379,0.609-2.754,1.216-4.125,1.822c-0.695,0.286-1.362,0.623-2.019,0.975l-1.983,1.028l-1.98,1.023
			c-0.661,0.338-1.272,0.752-1.909,1.124c-1.262,0.764-2.52,1.525-3.772,2.284c-1.198,0.837-2.391,1.67-3.58,2.501
			c-4.661,3.434-8.992,7.174-12.724,11.302l-1.43,1.517c-0.488,0.495-0.877,1.066-1.32,1.593c-0.863,1.074-1.721,2.143-2.574,3.204
			c-0.809,1.094-1.531,2.239-2.299,3.345c-0.379,0.557-0.757,1.112-1.133,1.666l-0.141,0.208l-0.071,0.104
			c-0.035,0.052,0.046-0.092-0.02,0.024l-0.271,0.458l-0.54,0.915c-2.741,4.569-4.775,9.317-6.435,14.076
			c-1.657,4.751-2.71,9.539-3.349,14.19c-0.65,4.657-0.738,9.187-0.546,13.486c0.197,4.303,0.777,8.377,1.634,12.144
			c1.739,7.532,4.435,13.853,7.261,18.717c2.842,4.861,5.586,8.425,7.612,10.712c0.984,1.175,1.822,1.999,2.367,2.577
			c0.55,0.574,0.833,0.87,0.833,0.87l-0.458,0.529c0,0-0.306-0.278-0.899-0.816c-0.589-0.543-1.494-1.316-2.571-2.433
			c-2.196-2.181-5.286-5.558-8.48-10.394c-3.19-4.821-6.406-11.174-8.584-18.95c-2.17-7.755-3.298-16.941-2.36-26.838
			c0.913-9.872,3.831-20.463,9.353-30.437c0.651-1.25,1.443-2.472,2.216-3.678c0.784-1.209,1.528-2.458,2.36-3.656
			c0.879-1.165,1.765-2.337,2.654-3.516c0.458-0.579,0.864-1.204,1.368-1.75l1.481-1.673c3.859-4.57,8.461-8.636,13.375-12.412
			c1.255-0.911,2.517-1.827,3.782-2.745c1.309-0.854,2.649-1.673,3.98-2.516c0.673-0.409,1.323-0.861,2.019-1.236l2.088-1.131
			l2.096-1.135c0.696-0.388,1.4-0.759,2.132-1.079c1.448-0.671,2.9-1.345,4.357-2.021c1.465-0.655,2.984-1.194,4.48-1.799
			l2.258-0.879l2.309-0.756c1.547-0.482,3.071-1.058,4.647-1.466c6.257-1.822,12.725-3.023,19.268-3.833l4.939-0.473
			c1.645-0.124,3.282-0.151,4.925-0.231c0.831-0.023,1.621-0.092,2.485-0.078l2.481,0.033c1.653,0.037,3.311-0.003,4.96,0.15
			c6.617,0.297,13.175,1.363,19.604,2.781c6.442,1.402,12.7,3.479,18.715,5.963c1.489,0.657,3.02,1.215,4.466,1.95
			c1.455,0.718,2.905,1.433,4.353,2.147c1.435,0.738,2.811,1.58,4.212,2.361c0.694,0.404,1.401,0.782,2.081,1.205l2.006,1.314
			l2,1.311c0.67,0.43,1.333,0.868,1.956,1.36c1.269,0.953,2.534,1.902,3.793,2.848c1.246,0.963,2.4,2.034,3.597,3.04l1.773,1.529
			l1.66,1.638c1.091,1.104,2.234,2.145,3.268,3.289c1.019,1.16,2.033,2.314,3.042,3.463l0.755,0.861l0.687,0.9l1.361,1.799
			l1.354,1.79l0.337,0.446l0.18,0.239l0.156,0.234l0.622,0.935c3.33,4.963,6.053,10.184,8.042,15.52
			c2.011,5.326,3.371,10.728,4.116,16.032c0.723,5.31,0.827,10.507,0.428,15.464c-0.112,1.24-0.198,2.475-0.392,3.663
			c-0.167,1.186-0.305,2.394-0.602,3.557c-0.442,2.354-1.188,4.566-1.945,6.702c-1.575,4.258-3.633,8.037-5.604,11.539
			c-0.997,1.747-2.008,3.409-3.002,5.002c-1.005,1.59-1.928,3.123-2.939,4.561c-0.52,0.707-1.007,1.42-1.525,2.08
			c-0.541,0.64-1.069,1.265-1.585,1.876c-1.032,1.224-2.099,2.306-3.067,3.378c-3.986,4.165-7.21,7.346-9.239,9.634
			c-1.048,1.111-1.783,2.042-2.285,2.661c-0.503,0.618-0.763,0.937-0.763,0.937L451.52,272.298z"/>
	</g>
	<g>
		<path fill="#603813" d="M508.006,372.638c0,0-0.066,0.17-0.19,0.489c-0.133,0.301-0.284,0.774-0.524,1.334
			c-0.238,0.556-0.469,1.274-0.803,2.021c-0.146,0.388-0.3,0.8-0.463,1.235c-0.169,0.426-0.355,0.864-0.525,1.335
			c-0.365,0.925-0.706,1.941-1.09,2.986c-0.415,1.029-0.723,2.163-1.152,3.268c-0.309,1.154-0.764,2.287-1.063,3.482
			c-0.167,0.593-0.316,1.193-0.511,1.782c-0.183,0.593-0.277,1.208-0.427,1.809c-0.142,0.603-0.341,1.196-0.438,1.805
			c-0.09,0.608-0.229,1.208-0.341,1.808c-0.295,1.195-0.363,2.392-0.574,3.554c-0.241,1.164-0.232,2.301-0.38,3.397
			c-0.16,1.099-0.206,2.146-0.25,3.132c-0.031,0.493-0.035,0.965-0.086,1.426c-0.047,0.461-0.105,0.905-0.084,1.311
			c0.022,0.814-0.026,1.555-0.048,2.167c-0.012,0.609-0.079,1.114-0.098,1.452c-0.037,0.345-0.057,0.528-0.057,0.528l-0.379,0.127
			c0,0-0.193-0.656-0.531-1.806c-0.169-0.575-0.374-1.274-0.609-2.075c-0.248-0.8-0.344-1.744-0.531-2.755
			c-0.084-0.509-0.173-1.037-0.264-1.585c-0.098-0.547-0.085-1.125-0.134-1.713c-0.039-1.178-0.222-2.421-0.104-3.709
			c0.078-1.284,0.047-2.624,0.294-3.959c0.095-0.67,0.19-1.346,0.286-2.024c0.097-0.678,0.296-1.339,0.439-2.012
			c0.174-0.665,0.305-1.342,0.518-1.992c0.217-0.649,0.434-1.296,0.649-1.938c0.198-0.647,0.447-1.27,0.714-1.877
			c0.257-0.61,0.51-1.214,0.76-1.807c0.589-1.144,1.09-2.285,1.7-3.295c0.295-0.511,0.582-1.007,0.86-1.486
			c0.301-0.466,0.592-0.915,0.871-1.347c0.54-0.876,1.138-1.61,1.626-2.286c0.527-0.648,0.971-1.226,1.373-1.672
			c0.778-0.911,1.278-1.39,1.278-1.39L508.006,372.638z"/>
	</g>
	<g>
		<path fill="#603813" d="M307.309,283.629c0,0-0.011,0.693,0.049,2.024c0.06,1.324,0.192,3.27,0.484,5.729
			c0.601,4.912,1.744,11.92,4.25,19.987c1.245,4.032,2.816,8.323,4.769,12.721c1.959,4.394,4.239,8.919,6.946,13.385
			c5.385,8.946,12.386,17.662,20.455,25.224l3.071,2.781c1.064,0.879,2.128,1.757,3.189,2.634l0.399,0.326l0.199,0.163l0.1,0.082
			l0.05,0.04c0.065,0.054-0.395-0.316-0.174-0.142l0.887,0.607l1.762,1.211c1.171,0.807,2.338,1.61,3.501,2.411
			c4.657,3.193,9.177,6.423,13.44,9.697c4.233,3.313,8.239,6.631,11.931,9.913c3.706,3.266,7.131,6.455,10.217,9.492
			c3.091,3.031,5.845,5.907,8.194,8.563c1.168,1.338,2.256,2.589,3.24,3.777c0.977,1.188,1.835,2.33,2.604,3.361
			c1.536,2.061,2.6,3.842,3.221,5.128c0.148,0.326,0.278,0.614,0.391,0.863c0.104,0.257,0.167,0.504,0.222,0.685
			c0.104,0.366,0.156,0.556,0.156,0.556l-0.938,0.346c0,0-0.105-0.131-0.309-0.384c-0.107-0.124-0.207-0.278-0.368-0.455
			c-0.173-0.175-0.373-0.376-0.6-0.604c-0.926-0.893-2.377-2.142-4.349-3.638c-0.974-0.756-2.07-1.573-3.284-2.448
			c-1.187-0.897-2.502-1.843-3.905-2.849c-2.813-2.013-5.987-4.283-9.45-6.76c-3.463-2.479-7.205-5.181-11.137-8.074
			c-3.946-2.876-8.05-5.983-12.25-9.263c-4.173-3.313-8.411-6.84-12.699-10.451c-1.076-0.896-2.156-1.797-3.24-2.699l-1.632-1.347
			l-0.816-0.669c0.185,0.148-0.31-0.249-0.277-0.227l-0.049-0.048l-0.099-0.097l-0.198-0.191l-0.396-0.385
			c-1.058-1.019-2.118-2.04-3.179-3.062l-3.072-3.179c-4.045-4.285-7.805-8.832-11.168-13.541
			c-3.386-4.694-6.288-9.606-8.778-14.497c-2.484-4.896-4.573-9.772-6.204-14.509c-1.641-4.732-2.888-9.296-3.818-13.545
			c-1.852-8.505-2.488-15.727-2.571-20.771c-0.101-5.048,0.234-7.934,0.234-7.934L307.309,283.629z"/>
	</g>
	<path fill="none" stroke="#603813" stroke-width="3" stroke-miterlimit="10" d="M426.5,444.75c0,0-10.25,6.5-9,16.75
		c0,0,9.538-12.25,14.394-10.75c0,0-3.144,13.25,4.356,16.75c0,0,0.75-13,6.25-11.375c0,0,11,2.375,10,13.875
		c0,0,6.75,0.25,2.5-18.25"/>
	<g>
		<path fill="#603813" d="M442.431,400.313c0,0,1.637,0.402,3.902,1.526c0.559,0.292,1.185,0.588,1.807,0.971
			c0.643,0.354,1.277,0.796,1.933,1.264c0.674,0.445,1.293,1.014,1.954,1.56c0.6,0.609,1.26,1.194,1.822,1.878
			c0.56,0.685,1.184,1.333,1.675,2.08c0.258,0.363,0.525,0.723,0.763,1.094c0.22,0.382,0.383,0.788,0.563,1.178
			c0.146,0.404,0.331,0.787,0.427,1.189c0.083,0.408,0.157,0.808,0.208,1.199c0.062,0.39,0.096,0.771,0.138,1.135
			c0.006,0.37-0.019,0.73-0.044,1.072c-0.062,0.685-0.118,1.302-0.246,1.837c-0.164,0.536-0.324,0.991-0.479,1.359
			c-0.299,0.735-0.542,1.122-0.542,1.122l-0.398-0.035c0,0-0.225-0.432-0.494-1.128c-0.139-0.348-0.281-0.762-0.424-1.223
			c-0.163-0.459-0.411-0.957-0.599-1.492c-0.108-0.266-0.175-0.547-0.293-0.824c-0.125-0.277-0.264-0.557-0.379-0.849
			c-0.126-0.288-0.234-0.588-0.337-0.895c-0.145-0.294-0.27-0.602-0.404-0.911c-0.113-0.318-0.226-0.643-0.325-0.982
			c-0.145-0.319-0.264-0.659-0.396-1.001c-0.223-0.703-0.607-1.352-0.979-2.012c-0.375-0.659-0.865-1.252-1.296-1.877
			c-0.51-0.561-0.941-1.19-1.465-1.708c-0.498-0.544-1.005-1.049-1.508-1.513c-0.485-0.487-0.993-0.891-1.448-1.288
			c-1.876-1.525-3.29-2.357-3.291-2.357L442.431,400.313z"/>
	</g>
	<path fill="none" stroke="#603813" stroke-width="3" stroke-miterlimit="10" d="M473.367,450.75c0,0-6.962,9.604-2.532,17.199
		c0,0,6.962-13.292,10.126-11.393c0,0,11.871,3.799,10.683,13.925c0,0,7.686-10.981,0.084-19.731c0,0,17.715,4.253,19.613,12.625
		c0,0,3.294-10.615-8.479-20.742"/>
	<polygon fill="#603813" stroke="#603813" stroke-miterlimit="10" points="388.02,246.804 385.29,239.438 382.439,234.641 
		388.02,234.571 393.601,234.502 390.87,239.369 	"/>
	<g>
		<path fill="#603813" d="M519.342,349.261c1.408-6.188,4.622-11.756,8.516-16.678c3.993-4.868,8.855-8.99,14.182-12.337
			c1.357-0.793,2.699-1.62,4.074-2.385l4.241-2.069c0.698-0.367,1.432-0.65,2.165-0.935l2.194-0.865l2.195-0.865l2.171-0.817
			l4.366-1.643l4.261-1.789c1.426-0.578,2.805-1.289,4.209-1.926c1.409-0.632,2.773-1.352,4.141-2.065
			c5.463-2.852,10.718-6.104,15.541-9.875c2.396-1.9,4.687-3.929,6.761-6.12c0.509-0.551,1.022-1.107,1.484-1.679
			c0.489-0.566,0.862-1.114,1.331-1.781c0.886-1.273,1.813-2.54,2.667-3.82c3.392-5.053,6.407-10.473,8.984-16.027
			c2.583-5.566,4.775-11.313,6.513-17.197c1.741-5.883,3.059-11.888,3.984-17.951c0.938-6.061,1.422-12.189,1.551-18.315
			c0.103-6.12-0.16-12.273-0.957-18.284c-0.103-0.744-0.213-1.501-0.339-2.207l-0.392-2.333l-0.769-4.604
			c-0.46-3.101-1.134-6.075-1.768-9.07c-0.332-1.496-0.603-2.998-0.982-4.487l-1.148-4.469c-0.398-1.485-0.728-2.989-1.183-4.457
			l-1.333-4.413c-1.767-5.887-3.918-11.643-6.216-17.325c-2.399-5.64-5.029-11.175-7.987-16.513l-2.288-3.957
			c-0.811-1.285-1.588-2.595-2.424-3.857c-0.84-1.261-1.673-2.525-2.561-3.736c-0.855-1.21-1.814-2.449-2.664-3.47l5.452-1.918
			c-0.143,2.481-0.244,4.966-0.411,7.448c-0.294,2.47-0.501,4.955-0.872,7.417c-0.779,4.919-1.75,9.821-3.139,14.614l-1.038,3.597
			c-0.378,1.189-0.82,2.356-1.228,3.535c-0.433,1.169-0.793,2.369-1.288,3.514l-1.429,3.458c-0.456,1.163-0.983,2.292-1.525,3.416
			l-1.602,3.381c-0.565,1.11-1.166,2.203-1.748,3.305c-0.592,1.097-1.154,2.211-1.811,3.27c-1.271,2.142-2.514,4.305-3.929,6.354
			c-1.345,2.098-2.825,4.097-4.288,6.109c-2.991,3.97-6.126,7.835-9.532,11.443c-3.368,3.641-6.891,7.135-10.604,10.408
			c-3.705,3.282-7.543,6.405-11.515,9.347c-3.972,2.941-8.07,5.705-12.306,8.269c-2.125,1.275-4.271,2.5-6.502,3.655
			c-2.122,1.044-4.278,2.241-6.416,3.354l-3.213,1.699c-1.078,0.561-2.144,1.131-3.159,1.742l-6.2,3.578
			c-1.045,0.577-2.063,1.207-3.075,1.852l-3.048,1.911l-3.051,1.911c-1.01,0.648-1.984,1.345-2.979,2.016
			c-1.966,1.372-3.992,2.668-5.914,4.102c-1.925,1.429-3.876,2.83-5.786,4.284l-5.616,4.506c-1.797,1.587-3.657,3.112-5.445,4.716
			l-2.642,2.45l-1.323,1.227l-1.271,1.276l-2.545,2.556l-2.442,2.652c-0.833,0.872-1.583,1.808-2.371,2.718
			c-0.795,0.905-1.534,1.852-2.288,2.79c-1.5,1.875-2.948,3.824-4.183,5.858l-0.624-0.317c2.205-4.402,5.033-8.392,8.026-12.255
			l2.288-2.865l2.397-2.773l1.201-1.388l1.252-1.337l2.508-2.678c1.705-1.753,3.465-3.451,5.219-5.16l5.459-4.907
			c1.859-1.589,3.763-3.125,5.646-4.692c0.932-0.797,1.908-1.533,2.89-2.263l2.933-2.208c0.982-0.729,1.946-1.487,2.944-2.194
			l3.018-2.088l3.02-2.089c1.002-0.704,2.014-1.395,3.063-2.039l6.243-3.934c1.041-0.672,2.09-1.283,3.143-1.877l3.151-1.81
			c2.12-1.199,4.16-2.429,6.346-3.604c2.035-1.144,4.058-2.393,6.044-3.681c3.988-2.561,7.873-5.306,11.619-8.225
			c3.748-2.917,7.36-6.004,10.833-9.231c1.747-1.603,3.433-3.267,5.12-4.928c1.635-1.712,3.313-3.383,4.866-5.167
			c3.188-3.495,6.151-7.178,8.987-10.946c1.381-1.911,2.781-3.809,4.046-5.797c1.333-1.944,2.549-3.958,3.769-5.972
			c0.635-0.993,1.175-2.038,1.745-3.067c0.561-1.033,1.142-2.057,1.688-3.098l1.545-3.17c0.525-1.052,1.036-2.111,1.476-3.201
			l1.386-3.242c0.481-1.073,0.829-2.198,1.251-3.294c0.398-1.104,0.822-2.202,1.202-3.313l1.051-3.365
			c1.41-4.486,2.424-9.086,3.266-13.718c0.402-2.319,0.646-4.664,0.98-6.997c0.208-2.347,0.358-4.702,0.536-7.055l0.586-7.745
			l4.866,5.826c0.313,0.374,0.553,0.691,0.809,1.021c0.261,0.329,0.502,0.657,0.739,0.985c0.481,0.655,0.963,1.311,1.408,1.977
			c0.929,1.318,1.784,2.667,2.645,4.013c0.857,1.348,1.645,2.73,2.47,4.093l2.31,4.168c2.979,5.605,5.578,11.381,7.964,17.232
			c2.277,5.891,4.392,11.844,6.109,17.909l1.294,4.546c0.442,1.512,0.757,3.057,1.141,4.584l1.102,4.592
			c0.364,1.531,0.624,3.1,0.941,4.647c0.605,3.104,1.251,6.215,1.655,9.281l0.695,4.616l0.345,2.277
			c0.135,0.829,0.235,1.613,0.333,2.412c0.738,6.344,0.902,12.668,0.698,18.988c-0.232,6.315-0.832,12.616-1.896,18.841
			c-1.051,6.226-2.505,12.385-4.393,18.411c-1.89,6.025-4.224,11.911-6.991,17.583c-2.786,5.678-5.952,11.108-9.609,16.316
			c-0.9,1.29-1.84,2.517-2.758,3.777c-0.437,0.599-0.962,1.324-1.504,1.925c-0.53,0.627-1.086,1.204-1.645,1.783
			c-2.255,2.283-4.681,4.338-7.201,6.253c-5.069,3.792-10.514,7.001-16.14,9.789c-1.407,0.697-2.812,1.4-4.257,2.012
			c-1.442,0.619-2.85,1.307-4.32,1.868l-4.386,1.732l-4.405,1.552l-2.215,0.781l-2.164,0.802l-2.166,0.801
			c-0.725,0.263-1.449,0.524-2.138,0.869l-4.191,1.937c-1.358,0.719-2.685,1.5-4.03,2.246c-5.272,3.161-10.107,7.086-14.115,11.767
			c-3.905,4.718-7.185,10.158-8.671,16.117L519.342,349.261z"/>
	</g>
	<path fill="none" stroke="#FFFFFF" stroke-width="3" stroke-miterlimit="10" d="M398.646,281.601"/>
	<g>
		<g>
			<path fill="#603813" d="M451.208,237.344c0,0,0.408-0.406,1.174-1.168c0.375-0.387,0.872-0.835,1.393-1.417
				c0.508-0.587,1.092-1.263,1.746-2.02c0.639-0.765,1.269-1.683,1.994-2.638c0.676-0.993,1.373-2.092,2.097-3.27
				c1.355-2.417,2.722-5.228,3.821-8.437c1.058-3.219,1.871-6.808,2.241-10.648c0.363-3.84,0.224-7.931-0.518-12.048
				c-0.229-1.019-0.46-2.047-0.693-3.082c-0.313-1.012-0.628-2.032-0.945-3.057c-0.403-1.014-0.808-2.034-1.215-3.06
				c-0.465-0.961-0.932-1.927-1.401-2.896c-2.057-3.869-4.759-7.472-7.946-10.573c-3.163-3.125-6.813-5.758-10.724-7.711
				c-3.914-1.943-8.055-3.284-12.185-3.849c-4.109-0.569-8.234-0.478-12.003,0.16c-3.799,0.63-7.299,1.783-10.387,3.16
				c-3.083,1.396-5.773,3.001-7.996,4.651c-2.208,1.663-4.063,3.241-5.434,4.698c-0.721,0.697-1.298,1.379-1.817,1.961
				c-0.531,0.574-0.948,1.09-1.271,1.521c-0.665,0.851-1.019,1.305-1.019,1.305s0.308-0.487,0.886-1.4
				c0.281-0.463,0.647-1.022,1.122-1.648c0.459-0.639,0.984-1.378,1.656-2.139c1.269-1.586,3.007-3.354,5.168-5.201
				c2.161-1.848,4.821-3.696,7.958-5.3c3.128-1.608,6.731-3.011,10.719-3.809c1.006-0.167,1.995-0.417,3.058-0.513
				c1.056-0.132,2.127-0.262,3.147-0.292c0.54-0.021,0.991-0.073,1.612-0.069c0.542,0.016,1.086,0.031,1.633,0.047
				c0.548,0.019,1.098,0.037,1.65,0.056c0.549,0.063,1.101,0.127,1.654,0.192c4.426,0.524,8.935,1.79,13.134,3.874
				c4.208,2.063,8.137,4.846,11.54,8.169c3.384,3.343,6.24,7.213,8.406,11.364c0.505,1.075,1.009,2.146,1.51,3.212
				c0.396,1.071,0.791,2.136,1.183,3.195c0.313,1.103,0.625,2.2,0.934,3.288c0.223,1.108,0.443,2.208,0.663,3.299
				c0.717,4.396,0.669,8.729,0.139,12.742c-0.519,4.022-1.572,7.721-2.85,10.995c-1.298,3.274-2.908,6.075-4.462,8.45
				c-0.827,1.155-1.6,2.238-2.376,3.185c-0.819,0.916-1.528,1.787-2.24,2.512c-0.729,0.707-1.38,1.337-1.947,1.886
				c-0.578,0.53-1.114,0.926-1.526,1.276C451.654,236.98,451.208,237.344,451.208,237.344z"/>
		</g>
		<g>
			<path fill="#603813" d="M390.824,178.867c0,0-0.358-0.49-1.031-1.408c-0.346-0.45-0.729-1.043-1.261-1.671
				c-0.527-0.626-1.133-1.347-1.812-2.153c-0.711-0.777-1.539-1.604-2.413-2.519c-0.953-0.838-1.932-1.798-3.082-2.7
				c-0.578-0.446-1.174-0.906-1.788-1.379c-0.61-0.475-1.302-0.88-1.975-1.34c-0.339-0.226-0.683-0.455-1.031-0.686
				c-0.355-0.22-0.728-0.421-1.097-0.637c-0.751-0.411-1.483-0.893-2.292-1.271c-3.163-1.656-6.824-2.967-10.783-3.847
				c-3.965-0.861-8.266-1.163-12.648-0.769c-4.375,0.389-8.86,1.577-13.041,3.43c-4.216,1.874-8.144,4.545-11.594,7.719
				c-3.486,3.144-6.445,6.868-8.765,10.875c-2.318,4.024-4.08,8.217-5.158,12.586c-1.052,4.23-1.545,8.567-1.505,12.632
				c0.044,4.078,0.559,7.931,1.371,11.411c0.834,3.474,1.874,6.613,3.094,9.269c0.544,1.361,1.242,2.542,1.805,3.68
				c0.612,1.11,1.247,2.089,1.784,2.999c0.6,0.869,1.136,1.645,1.603,2.32c0.45,0.691,0.927,1.204,1.267,1.66
				c0.707,0.891,1.084,1.367,1.084,1.367s-0.42-0.438-1.207-1.26c-0.815-0.801-1.904-2.071-3.225-3.751
				c-0.604-0.878-1.317-1.827-2.017-2.91c-0.65-1.111-1.447-2.27-2.098-3.616c-1.44-2.622-2.738-5.768-3.756-9.323
				c-1.027-3.551-1.765-7.529-1.943-11.788c-0.189-4.264,0.121-8.757,1.192-13.372c1.022-4.479,2.749-9.111,5.202-13.354
				c2.434-4.27,5.546-8.255,9.244-11.632c3.705-3.36,7.922-6.183,12.45-8.156c4.56-2,9.32-3.071,14.002-3.411
				c4.681-0.346,9.234,0.171,13.373,1.224c4.142,1.055,7.896,2.627,11.088,4.512c3.198,1.875,5.913,3.928,8.091,5.981
				c1.109,1.002,2.043,2.051,2.947,2.967c0.827,0.994,1.603,1.886,2.268,2.722c0.621,0.87,1.176,1.646,1.659,2.322
				c0.474,0.678,0.798,1.301,1.101,1.783C390.513,178.346,390.824,178.867,390.824,178.867z"/>
		</g>
	</g>
</g>
<g id="Layer_6">
	<path display="none" fill="none" stroke="#FFFFFF" stroke-width="3" stroke-miterlimit="10" d="M391.646,213.718
		c0,0-1.939-47.928,51.619-36.4"/>
	<path display="none" fill="none" stroke="#FFFFFF" stroke-width="3" stroke-miterlimit="10" d="M380.249,213.718
		c0,0,0.755-47.559-48.373-36.753"/>
	
		<ellipse display="none" fill="none" stroke="#FFFFFF" stroke-width="3" stroke-miterlimit="10" cx="419.926" cy="195.012" rx="14.605" ry="13.487"/>
	
		<ellipse transform="matrix(0.9996 -0.028 0.028 0.9996 -5.4742 9.9172)" display="none" fill="#FBB03B" stroke="#FFFFFF" stroke-width="3" stroke-miterlimit="10" cx="350.979" cy="200.208" rx="31.102" ry="28.723"/>
	<path display="none" fill="#FBB03B" stroke="#FFFFFF" stroke-width="3" stroke-miterlimit="10" d="M456.068,199.336
		c0.445,15.858-13.115,29.102-30.285,29.583c-17.167,0.481-31.45-11.983-31.893-27.84c-0.446-15.854,13.116-29.099,30.283-29.58
		C441.344,171.018,455.624,183.483,456.068,199.336z"/>
	
		<ellipse fill="#FCEE21" stroke="#FFFFFF" stroke-width="2" stroke-miterlimit="10" cx="353.193" cy="193.765" rx="23.249" ry="21.47"/>
	
		<ellipse display="none" fill="none" stroke="#FFFFFF" stroke-width="3" stroke-miterlimit="10" cx="425.146" cy="199.808" rx="23.295" ry="21.513"/>
	
		<ellipse transform="matrix(0.9996 -0.028 0.028 0.9996 -5.2989 11.8667)" fill="#FCEE21" stroke="#FFFFFF" stroke-width="2" stroke-miterlimit="10" cx="421.038" cy="195.123" rx="22.607" ry="20.877"/>
	
		<ellipse transform="matrix(0.9996 -0.028 0.028 0.9996 -5.1685 11.7601)" fill="#FBB03B" stroke="#FFFFFF" stroke-width="2" stroke-miterlimit="10" cx="417.416" cy="190.47" rx="15.174" ry="14.012"/>
	
		<ellipse transform="matrix(0.9996 -0.028 0.028 0.9996 -5.1917 10.1084)" fill="#FBB03B" stroke="#FFFFFF" stroke-width="2" stroke-miterlimit="10" cx="358.416" cy="190.47" rx="15.174" ry="14.012"/>
</g>
</svg>
